<mxfile host="65bd71144e">
    <diagram id="dYl3b9yXO9JY-UtPqzPd" name="Page-1">
        <mxGraphModel dx="716" dy="616" grid="1" gridSize="10" guides="1" tooltips="1" connect="1" arrows="1" fold="1" page="1" pageScale="1" pageWidth="850" pageHeight="1100" math="0" shadow="0">
            <root>
                <mxCell id="0"/>
                <mxCell id="1" parent="0"/>
                <mxCell id="128" value="Visitor" style="shape=umlActor;verticalLabelPosition=bottom;verticalAlign=top;html=1;outlineConnect=0;fillColor=#008a00;strokeColor=#005700;fontColor=#000000;" vertex="1" parent="1">
                    <mxGeometry x="30" y="68" width="60" height="110" as="geometry"/>
                </mxCell>
                <mxCell id="129" value="Doctor" style="shape=umlActor;verticalLabelPosition=bottom;verticalAlign=top;html=1;outlineConnect=0;fillColor=#d80073;strokeColor=#A50040;fontColor=#000000;" vertex="1" parent="1">
                    <mxGeometry x="30" y="413" width="60" height="110" as="geometry"/>
                </mxCell>
                <mxCell id="130" value="Secratery" style="shape=umlActor;verticalLabelPosition=bottom;verticalAlign=top;html=1;outlineConnect=0;fillColor=#e3c800;strokeColor=#B09500;fontColor=#000000;" vertex="1" parent="1">
                    <mxGeometry x="30" y="778" width="60" height="110" as="geometry"/>
                </mxCell>
                <mxCell id="131" value="Timer" style="shape=umlActor;verticalLabelPosition=bottom;verticalAlign=top;html=1;outlineConnect=0;fillColor=#f0a30a;strokeColor=#BD7000;fontColor=#000000;" vertex="1" parent="1">
                    <mxGeometry x="780" y="658" width="60" height="110" as="geometry"/>
                </mxCell>
                <mxCell id="132" value="رؤية كافة الأطباء مع وقت التواجد" style="ellipse;whiteSpace=wrap;html=1;fillColor=#d5e8d4;strokeColor=#82b366;" vertex="1" parent="1">
                    <mxGeometry x="150" y="38" width="90" height="70" as="geometry"/>
                </mxCell>
                <mxCell id="133" value="patient_User" style="shape=umlActor;verticalLabelPosition=bottom;verticalAlign=top;html=1;outlineConnect=0;fillColor=#6a00ff;strokeColor=#3700CC;fontColor=#000000;" vertex="1" parent="1">
                    <mxGeometry x="770" y="58" width="60" height="110" as="geometry"/>
                </mxCell>
                <mxCell id="134" value="البحث عن طبيب" style="ellipse;whiteSpace=wrap;html=1;fillColor=#d5e8d4;strokeColor=#82b366;" vertex="1" parent="1">
                    <mxGeometry x="150" y="118" width="95" height="70" as="geometry"/>
                </mxCell>
                <mxCell id="135" value="إدارة الملف الشخصي" style="ellipse;whiteSpace=wrap;html=1;fillColor=#f8cecc;strokeColor=#b85450;" vertex="1" parent="1">
                    <mxGeometry x="150" y="233" width="80" height="50" as="geometry"/>
                </mxCell>
                <mxCell id="136" value="تسجيل الدخول/إنشاء حساب" style="ellipse;whiteSpace=wrap;html=1;fillColor=#e1d5e7;strokeColor=#9673a6;" vertex="1" parent="1">
                    <mxGeometry x="472.5" y="118" width="85" height="50" as="geometry"/>
                </mxCell>
                <mxCell id="137" value="حجز" style="ellipse;whiteSpace=wrap;html=1;fillColor=#e1d5e7;strokeColor=#9673a6;" vertex="1" parent="1">
                    <mxGeometry x="485" y="248" width="90" height="60" as="geometry"/>
                </mxCell>
                <mxCell id="138" value="إدارة موعد" style="ellipse;whiteSpace=wrap;html=1;fillColor=#e1d5e7;strokeColor=#9673a6;" vertex="1" parent="1">
                    <mxGeometry x="605" y="138" width="90" height="60" as="geometry"/>
                </mxCell>
                <mxCell id="139" value="إلغاء" style="ellipse;whiteSpace=wrap;html=1;fillColor=#e1d5e7;strokeColor=#9673a6;" vertex="1" parent="1">
                    <mxGeometry x="472.5" y="178" width="90" height="60" as="geometry"/>
                </mxCell>
                <mxCell id="140" value="" style="edgeStyle=none;html=1;endSize=12;endArrow=block;endFill=0;rounded=0;exitX=1.013;exitY=0.398;exitDx=0;exitDy=0;exitPerimeter=0;" edge="1" parent="1" source="139" target="138">
                    <mxGeometry width="160" relative="1" as="geometry">
                        <mxPoint x="580" y="308" as="sourcePoint"/>
                        <mxPoint x="740" y="308" as="targetPoint"/>
                    </mxGeometry>
                </mxCell>
                <mxCell id="141" value="" style="edgeStyle=none;html=1;endSize=12;endArrow=block;endFill=0;rounded=0;exitX=1.013;exitY=0.632;exitDx=0;exitDy=0;exitPerimeter=0;" edge="1" parent="1" source="137" target="138">
                    <mxGeometry width="160" relative="1" as="geometry">
                        <mxPoint x="601" y="312" as="sourcePoint"/>
                        <mxPoint x="645" y="280" as="targetPoint"/>
                    </mxGeometry>
                </mxCell>
                <mxCell id="142" value="تعديل الملف الشخصي" style="ellipse;whiteSpace=wrap;html=1;fillColor=#e1d5e7;strokeColor=#9673a6;" vertex="1" parent="1">
                    <mxGeometry x="575" y="48" width="90" height="60" as="geometry"/>
                </mxCell>
                <mxCell id="143" value="&amp;lt;&amp;lt;include&amp;gt;&amp;gt;" style="html=1;verticalAlign=bottom;labelBackgroundColor=none;endArrow=open;endFill=0;dashed=1;rounded=0;exitX=0.5;exitY=0;exitDx=0;exitDy=0;" edge="1" parent="1" source="138" target="136">
                    <mxGeometry width="160" relative="1" as="geometry">
                        <mxPoint x="650" y="228" as="sourcePoint"/>
                        <mxPoint x="810" y="228" as="targetPoint"/>
                    </mxGeometry>
                </mxCell>
                <mxCell id="144" value="تعبئة السجل الطبي" style="ellipse;whiteSpace=wrap;html=1;fillColor=#e1d5e7;strokeColor=#9673a6;" vertex="1" parent="1">
                    <mxGeometry x="400" y="303" width="70" height="55" as="geometry"/>
                </mxCell>
                <mxCell id="145" value="عرض الوصفة الطبية" style="ellipse;whiteSpace=wrap;html=1;fillColor=#e1d5e7;strokeColor=#9673a6;" vertex="1" parent="1">
                    <mxGeometry x="650" y="348" width="90" height="60" as="geometry"/>
                </mxCell>
                <mxCell id="146" value="&amp;lt;&amp;lt;include&amp;gt;&amp;gt;" style="html=1;verticalAlign=bottom;labelBackgroundColor=none;endArrow=open;endFill=0;dashed=1;rounded=0;exitX=0.068;exitY=0.632;exitDx=0;exitDy=0;exitPerimeter=0;entryX=1;entryY=0.5;entryDx=0;entryDy=0;" edge="1" parent="1" source="137" target="144">
                    <mxGeometry width="160" relative="1" as="geometry">
                        <mxPoint x="510" y="248" as="sourcePoint"/>
                        <mxPoint x="450" y="226" as="targetPoint"/>
                    </mxGeometry>
                </mxCell>
                <mxCell id="147" value="إضافة منبه دواء" style="ellipse;whiteSpace=wrap;html=1;fillColor=#e1d5e7;strokeColor=#9673a6;" vertex="1" parent="1">
                    <mxGeometry x="590" y="280" width="90" height="60" as="geometry"/>
                </mxCell>
                <mxCell id="148" value="&amp;lt;&amp;lt;include&amp;gt;&amp;gt;" style="html=1;verticalAlign=bottom;labelBackgroundColor=none;endArrow=open;endFill=0;dashed=1;rounded=0;exitX=0.224;exitY=0.905;exitDx=0;exitDy=0;exitPerimeter=0;" edge="1" parent="1" source="142" target="136">
                    <mxGeometry width="160" relative="1" as="geometry">
                        <mxPoint x="705" y="118" as="sourcePoint"/>
                        <mxPoint x="595" y="122" as="targetPoint"/>
                    </mxGeometry>
                </mxCell>
                <mxCell id="149" value="" style="endArrow=none;html=1;rounded=0;exitX=1;exitY=1;exitDx=0;exitDy=0;entryX=0;entryY=0.3333333333333333;entryDx=0;entryDy=0;entryPerimeter=0;" edge="1" parent="1" source="142" target="133">
                    <mxGeometry width="50" height="50" relative="1" as="geometry">
                        <mxPoint x="540" y="318" as="sourcePoint"/>
                        <mxPoint x="590" y="268" as="targetPoint"/>
                    </mxGeometry>
                </mxCell>
                <mxCell id="150" value="" style="endArrow=none;html=1;rounded=0;exitX=1;exitY=0.5;exitDx=0;exitDy=0;entryX=0;entryY=0.3333333333333333;entryDx=0;entryDy=0;entryPerimeter=0;" edge="1" parent="1" source="138" target="133">
                    <mxGeometry width="50" height="50" relative="1" as="geometry">
                        <mxPoint x="540" y="318" as="sourcePoint"/>
                        <mxPoint x="770" y="98" as="targetPoint"/>
                    </mxGeometry>
                </mxCell>
                <mxCell id="151" value="" style="endArrow=none;html=1;rounded=0;exitX=0.598;exitY=0.04;exitDx=0;exitDy=0;exitPerimeter=0;entryX=0;entryY=0.3333333333333333;entryDx=0;entryDy=0;entryPerimeter=0;" edge="1" parent="1" source="147" target="133">
                    <mxGeometry width="50" height="50" relative="1" as="geometry">
                        <mxPoint x="710" y="238" as="sourcePoint"/>
                        <mxPoint x="770" y="98" as="targetPoint"/>
                    </mxGeometry>
                </mxCell>
                <mxCell id="152" value="" style="endArrow=none;html=1;rounded=0;entryX=0;entryY=0.3333333333333333;entryDx=0;entryDy=0;entryPerimeter=0;" edge="1" parent="1" source="145" target="133">
                    <mxGeometry width="50" height="50" relative="1" as="geometry">
                        <mxPoint x="714" y="260" as="sourcePoint"/>
                        <mxPoint x="770" y="90" as="targetPoint"/>
                    </mxGeometry>
                </mxCell>
                <mxCell id="153" value="" style="endArrow=none;html=1;rounded=0;entryX=0.06;entryY=0.603;entryDx=0;entryDy=0;entryPerimeter=0;" edge="1" parent="1" source="128" target="132">
                    <mxGeometry width="50" height="50" relative="1" as="geometry">
                        <mxPoint x="120" y="128" as="sourcePoint"/>
                        <mxPoint x="170" y="78" as="targetPoint"/>
                    </mxGeometry>
                </mxCell>
                <mxCell id="154" value="" style="endArrow=none;html=1;rounded=0;" edge="1" parent="1" target="134">
                    <mxGeometry width="50" height="50" relative="1" as="geometry">
                        <mxPoint x="90" y="108" as="sourcePoint"/>
                        <mxPoint x="180" y="228" as="targetPoint"/>
                    </mxGeometry>
                </mxCell>
                <mxCell id="155" value="" style="endArrow=none;html=1;rounded=0;exitX=1;exitY=0.5;exitDx=0;exitDy=0;entryX=0;entryY=0.3333333333333333;entryDx=0;entryDy=0;entryPerimeter=0;" edge="1" parent="1" source="136" target="133">
                    <mxGeometry width="50" height="50" relative="1" as="geometry">
                        <mxPoint x="680" y="128" as="sourcePoint"/>
                        <mxPoint x="730" y="78" as="targetPoint"/>
                    </mxGeometry>
                </mxCell>
                <mxCell id="156" value="" style="endArrow=none;html=1;rounded=0;startFill=0;entryX=0.25;entryY=0.1;entryDx=0;entryDy=0;entryPerimeter=0;" edge="1" parent="1" source="132" target="133">
                    <mxGeometry width="50" height="50" relative="1" as="geometry">
                        <mxPoint x="340" y="228" as="sourcePoint"/>
                        <mxPoint x="390" y="178" as="targetPoint"/>
                        <Array as="points">
                            <mxPoint x="260" y="50"/>
                            <mxPoint x="390" y="50"/>
                            <mxPoint x="690" y="40"/>
                        </Array>
                    </mxGeometry>
                </mxCell>
                <mxCell id="157" value="" style="endArrow=none;html=1;rounded=0;startFill=0;exitX=1;exitY=0;exitDx=0;exitDy=0;entryX=0.25;entryY=0.1;entryDx=0;entryDy=0;entryPerimeter=0;" edge="1" parent="1" source="134" target="133">
                    <mxGeometry width="50" height="50" relative="1" as="geometry">
                        <mxPoint x="240" y="120" as="sourcePoint"/>
                        <mxPoint x="780" y="94" as="targetPoint"/>
                        <Array as="points">
                            <mxPoint x="260" y="50"/>
                            <mxPoint x="690" y="40"/>
                        </Array>
                    </mxGeometry>
                </mxCell>
                <mxCell id="158" value="&amp;nbsp; إدارة مواعيد التواجد" style="ellipse;whiteSpace=wrap;html=1;fillColor=#f8cecc;strokeColor=#b85450;" vertex="1" parent="1">
                    <mxGeometry x="150" y="308" width="80" height="50" as="geometry"/>
                </mxCell>
                <mxCell id="159" value="عرض حجوزات المرضى" style="ellipse;whiteSpace=wrap;html=1;fillColor=#f8cecc;strokeColor=#b85450;" vertex="1" parent="1">
                    <mxGeometry x="150" y="378" width="80" height="50" as="geometry"/>
                </mxCell>
                <mxCell id="160" value="تعديل سجلات المرضى" style="ellipse;whiteSpace=wrap;html=1;fillColor=#f8cecc;strokeColor=#b85450;" vertex="1" parent="1">
                    <mxGeometry x="270" y="638" width="80" height="50" as="geometry"/>
                </mxCell>
                <mxCell id="161" value="إضافة الوصفة الطبية" style="ellipse;whiteSpace=wrap;html=1;fillColor=#f8cecc;strokeColor=#b85450;" vertex="1" parent="1">
                    <mxGeometry x="155" y="443" width="80" height="50" as="geometry"/>
                </mxCell>
                <mxCell id="162" value="إدارة الزيارة" style="ellipse;whiteSpace=wrap;html=1;fillColor=#f8cecc;strokeColor=#b85450;" vertex="1" parent="1">
                    <mxGeometry x="150" y="538" width="80" height="50" as="geometry"/>
                </mxCell>
                <mxCell id="163" value="حسم" style="ellipse;whiteSpace=wrap;html=1;fillColor=#f8cecc;strokeColor=#b85450;" vertex="1" parent="1">
                    <mxGeometry x="270" y="488" width="80" height="50" as="geometry"/>
                </mxCell>
                <mxCell id="164" value="تحديد المراجعة" style="ellipse;whiteSpace=wrap;html=1;fillColor=#f8cecc;strokeColor=#b85450;" vertex="1" parent="1">
                    <mxGeometry x="260" y="558" width="80" height="50" as="geometry"/>
                </mxCell>
                <mxCell id="165" value="إضافة المواد المستهلكة" style="ellipse;whiteSpace=wrap;html=1;fillColor=#f8cecc;strokeColor=#b85450;" vertex="1" parent="1">
                    <mxGeometry x="150" y="638" width="80" height="50" as="geometry"/>
                </mxCell>
                <mxCell id="166" value="&amp;lt;&amp;lt;extends&amp;gt;&amp;gt;" style="html=1;verticalAlign=bottom;labelBackgroundColor=none;endArrow=open;endFill=0;dashed=1;rounded=0;exitX=0.051;exitY=0.647;exitDx=0;exitDy=0;exitPerimeter=0;entryX=1;entryY=0;entryDx=0;entryDy=0;" edge="1" parent="1" source="163" target="162">
                    <mxGeometry width="160" relative="1" as="geometry">
                        <mxPoint x="400" y="578" as="sourcePoint"/>
                        <mxPoint x="560" y="578" as="targetPoint"/>
                    </mxGeometry>
                </mxCell>
                <mxCell id="167" value="&amp;lt;&amp;lt;extends&amp;gt;&amp;gt;" style="html=1;verticalAlign=bottom;labelBackgroundColor=none;endArrow=open;endFill=0;dashed=1;rounded=0;entryX=1;entryY=0.5;entryDx=0;entryDy=0;" edge="1" parent="1" source="164" target="162">
                    <mxGeometry x="0.0546" y="2" width="160" relative="1" as="geometry">
                        <mxPoint x="294" y="620" as="sourcePoint"/>
                        <mxPoint x="248" y="625" as="targetPoint"/>
                        <mxPoint as="offset"/>
                    </mxGeometry>
                </mxCell>
                <mxCell id="168" value="&amp;lt;&amp;lt;include&amp;gt;&amp;gt;" style="html=1;verticalAlign=bottom;labelBackgroundColor=none;endArrow=open;endFill=0;dashed=1;rounded=0;entryX=1;entryY=1;entryDx=0;entryDy=0;exitX=0;exitY=0;exitDx=0;exitDy=0;" edge="1" parent="1" source="160" target="162">
                    <mxGeometry x="0.0546" y="2" width="160" relative="1" as="geometry">
                        <mxPoint x="277.5" y="708" as="sourcePoint"/>
                        <mxPoint x="237.5" y="708" as="targetPoint"/>
                        <mxPoint as="offset"/>
                    </mxGeometry>
                </mxCell>
                <mxCell id="169" value="" style="endArrow=none;html=1;rounded=0;entryX=0;entryY=1;entryDx=0;entryDy=0;" edge="1" parent="1" source="129" target="135">
                    <mxGeometry width="50" height="50" relative="1" as="geometry">
                        <mxPoint x="60" y="368" as="sourcePoint"/>
                        <mxPoint x="110" y="318" as="targetPoint"/>
                    </mxGeometry>
                </mxCell>
                <mxCell id="170" value="" style="endArrow=none;html=1;rounded=0;exitX=0.75;exitY=0.1;exitDx=0;exitDy=0;exitPerimeter=0;" edge="1" parent="1" source="129" target="158">
                    <mxGeometry width="50" height="50" relative="1" as="geometry">
                        <mxPoint x="99" y="423" as="sourcePoint"/>
                        <mxPoint x="172" y="286" as="targetPoint"/>
                    </mxGeometry>
                </mxCell>
                <mxCell id="171" value="" style="endArrow=none;html=1;rounded=0;exitX=0.75;exitY=0.1;exitDx=0;exitDy=0;exitPerimeter=0;" edge="1" parent="1" source="129" target="159">
                    <mxGeometry width="50" height="50" relative="1" as="geometry">
                        <mxPoint x="85" y="434" as="sourcePoint"/>
                        <mxPoint x="175" y="363" as="targetPoint"/>
                    </mxGeometry>
                </mxCell>
                <mxCell id="172" value="" style="endArrow=none;html=1;rounded=0;exitX=0.75;exitY=0.1;exitDx=0;exitDy=0;exitPerimeter=0;" edge="1" parent="1" source="129" target="161">
                    <mxGeometry width="50" height="50" relative="1" as="geometry">
                        <mxPoint x="85" y="434" as="sourcePoint"/>
                        <mxPoint x="162" y="420" as="targetPoint"/>
                    </mxGeometry>
                </mxCell>
                <mxCell id="173" value="" style="endArrow=none;html=1;rounded=0;exitX=0.75;exitY=0.1;exitDx=0;exitDy=0;exitPerimeter=0;" edge="1" parent="1" source="129" target="162">
                    <mxGeometry width="50" height="50" relative="1" as="geometry">
                        <mxPoint x="85" y="434" as="sourcePoint"/>
                        <mxPoint x="169" y="477" as="targetPoint"/>
                    </mxGeometry>
                </mxCell>
                <mxCell id="174" value="" style="endArrow=none;html=1;rounded=0;exitX=0.75;exitY=0.1;exitDx=0;exitDy=0;exitPerimeter=0;entryX=0;entryY=0;entryDx=0;entryDy=0;" edge="1" parent="1" source="129" target="165">
                    <mxGeometry width="50" height="50" relative="1" as="geometry">
                        <mxPoint x="70" y="471" as="sourcePoint"/>
                        <mxPoint x="167" y="588" as="targetPoint"/>
                    </mxGeometry>
                </mxCell>
                <mxCell id="175" value="عرض مواعيد الأطباء" style="ellipse;whiteSpace=wrap;html=1;fillColor=#fff2cc;strokeColor=#d6b656;" vertex="1" parent="1">
                    <mxGeometry x="150" y="728" width="80" height="50" as="geometry"/>
                </mxCell>
                <mxCell id="176" value="إدارة حجوزات المرضى" style="ellipse;whiteSpace=wrap;html=1;fillColor=#fff2cc;strokeColor=#d6b656;" vertex="1" parent="1">
                    <mxGeometry x="150" y="798" width="80" height="50" as="geometry"/>
                </mxCell>
                <mxCell id="177" value="إدارة المواد" style="ellipse;whiteSpace=wrap;html=1;fillColor=#fff2cc;strokeColor=#d6b656;" vertex="1" parent="1">
                    <mxGeometry x="150" y="868" width="80" height="50" as="geometry"/>
                </mxCell>
                <mxCell id="178" value="إدارة المالية" style="ellipse;whiteSpace=wrap;html=1;fillColor=#fff2cc;strokeColor=#d6b656;" vertex="1" parent="1">
                    <mxGeometry x="140" y="958" width="80" height="50" as="geometry"/>
                </mxCell>
                <mxCell id="179" value="" style="endArrow=none;html=1;rounded=0;" edge="1" parent="1" source="130" target="175">
                    <mxGeometry width="50" height="50" relative="1" as="geometry">
                        <mxPoint x="230" y="818" as="sourcePoint"/>
                        <mxPoint x="280" y="768" as="targetPoint"/>
                    </mxGeometry>
                </mxCell>
                <mxCell id="180" value="" style="endArrow=none;html=1;rounded=0;exitX=1;exitY=0.3333333333333333;exitDx=0;exitDy=0;exitPerimeter=0;entryX=0;entryY=0.5;entryDx=0;entryDy=0;" edge="1" parent="1" source="130" target="176">
                    <mxGeometry width="50" height="50" relative="1" as="geometry">
                        <mxPoint x="100" y="825" as="sourcePoint"/>
                        <mxPoint x="172" y="781" as="targetPoint"/>
                    </mxGeometry>
                </mxCell>
                <mxCell id="181" value="" style="endArrow=none;html=1;rounded=0;exitX=1;exitY=0.3333333333333333;exitDx=0;exitDy=0;exitPerimeter=0;" edge="1" parent="1" source="130" target="177">
                    <mxGeometry width="50" height="50" relative="1" as="geometry">
                        <mxPoint x="100" y="825" as="sourcePoint"/>
                        <mxPoint x="160" y="833" as="targetPoint"/>
                    </mxGeometry>
                </mxCell>
                <mxCell id="182" value="" style="endArrow=none;html=1;rounded=0;" edge="1" parent="1" target="178">
                    <mxGeometry width="50" height="50" relative="1" as="geometry">
                        <mxPoint x="90" y="818" as="sourcePoint"/>
                        <mxPoint x="155" y="907" as="targetPoint"/>
                    </mxGeometry>
                </mxCell>
                <mxCell id="183" value="تأكيد الحجز" style="ellipse;whiteSpace=wrap;html=1;fillColor=#fad7ac;strokeColor=#b46504;" vertex="1" parent="1">
                    <mxGeometry x="620" y="748" width="80" height="50" as="geometry"/>
                </mxCell>
                <mxCell id="184" value="تذكير بالموعد" style="ellipse;whiteSpace=wrap;html=1;fillColor=#fad7ac;strokeColor=#b46504;" vertex="1" parent="1">
                    <mxGeometry x="620" y="678" width="80" height="50" as="geometry"/>
                </mxCell>
                <mxCell id="185" value="تنبيه الدواء" style="ellipse;whiteSpace=wrap;html=1;fillColor=#fad7ac;strokeColor=#b46504;" vertex="1" parent="1">
                    <mxGeometry x="620" y="618" width="80" height="50" as="geometry"/>
                </mxCell>
                <mxCell id="186" value="تنبيه الزيارة الأولى&amp;nbsp;" style="ellipse;whiteSpace=wrap;html=1;fillColor=#fad7ac;strokeColor=#b46504;" vertex="1" parent="1">
                    <mxGeometry x="620" y="908" width="80" height="50" as="geometry"/>
                </mxCell>
                <mxCell id="187" value="انخفاض كمية المواد" style="ellipse;whiteSpace=wrap;html=1;fillColor=#fad7ac;strokeColor=#b46504;" vertex="1" parent="1">
                    <mxGeometry x="620" y="818" width="80" height="50" as="geometry"/>
                </mxCell>
                <mxCell id="188" value="&amp;lt;&amp;lt;include&amp;gt;&amp;gt;" style="html=1;verticalAlign=bottom;labelBackgroundColor=none;endArrow=open;endFill=0;dashed=1;rounded=0;exitX=1;exitY=0.5;exitDx=0;exitDy=0;entryX=0;entryY=0.5;entryDx=0;entryDy=0;" edge="1" parent="1" source="176" target="183">
                    <mxGeometry width="160" relative="1" as="geometry">
                        <mxPoint x="280" y="818" as="sourcePoint"/>
                        <mxPoint x="440" y="818" as="targetPoint"/>
                    </mxGeometry>
                </mxCell>
                <mxCell id="189" value="&amp;lt;&amp;lt;include&amp;gt;&amp;gt;" style="html=1;verticalAlign=bottom;labelBackgroundColor=none;endArrow=open;endFill=0;dashed=1;rounded=0;exitX=0.5;exitY=1;exitDx=0;exitDy=0;entryX=0.035;entryY=0.208;entryDx=0;entryDy=0;entryPerimeter=0;" edge="1" parent="1" source="137" target="183">
                    <mxGeometry width="160" relative="1" as="geometry">
                        <mxPoint x="526" y="276" as="sourcePoint"/>
                        <mxPoint x="490" y="276" as="targetPoint"/>
                    </mxGeometry>
                </mxCell>
                <mxCell id="190" value="&amp;lt;&amp;lt;include&amp;gt;&amp;gt;" style="html=1;verticalAlign=bottom;labelBackgroundColor=none;endArrow=open;endFill=0;dashed=1;rounded=0;exitX=0.637;exitY=0.933;exitDx=0;exitDy=0;entryX=0;entryY=0.5;entryDx=0;entryDy=0;exitPerimeter=0;" edge="1" parent="1" source="144" target="186">
                    <mxGeometry width="160" relative="1" as="geometry">
                        <mxPoint x="460" y="293" as="sourcePoint"/>
                        <mxPoint x="528" y="763" as="targetPoint"/>
                    </mxGeometry>
                </mxCell>
                <mxCell id="191" value="&amp;lt;&amp;lt;include&amp;gt;&amp;gt;" style="html=1;verticalAlign=bottom;labelBackgroundColor=none;endArrow=open;endFill=0;dashed=1;rounded=0;exitX=0;exitY=1;exitDx=0;exitDy=0;entryX=0;entryY=0.5;entryDx=0;entryDy=0;" edge="1" parent="1" source="147" target="185">
                    <mxGeometry width="160" relative="1" as="geometry">
                        <mxPoint x="540" y="298" as="sourcePoint"/>
                        <mxPoint x="633" y="768" as="targetPoint"/>
                    </mxGeometry>
                </mxCell>
                <mxCell id="192" value="استلام الوصفة" style="ellipse;whiteSpace=wrap;html=1;fillColor=#fad7ac;strokeColor=#b46504;" vertex="1" parent="1">
                    <mxGeometry x="630" y="548" width="80" height="50" as="geometry"/>
                </mxCell>
                <mxCell id="193" value="&amp;lt;&amp;lt;include&amp;gt;&amp;gt;" style="html=1;verticalAlign=bottom;labelBackgroundColor=none;endArrow=open;endFill=0;dashed=1;rounded=0;exitX=1;exitY=0.5;exitDx=0;exitDy=0;" edge="1" parent="1" source="161" target="192">
                    <mxGeometry width="160" relative="1" as="geometry">
                        <mxPoint x="540" y="298" as="sourcePoint"/>
                        <mxPoint x="633" y="768" as="targetPoint"/>
                    </mxGeometry>
                </mxCell>
                <mxCell id="194" value="&amp;lt;&amp;lt;include&amp;gt;&amp;gt;" style="html=1;verticalAlign=bottom;labelBackgroundColor=none;endArrow=open;endFill=0;dashed=1;rounded=0;exitX=0.5;exitY=0;exitDx=0;exitDy=0;entryX=0.285;entryY=0.88;entryDx=0;entryDy=0;entryPerimeter=0;" edge="1" parent="1" source="192" target="145">
                    <mxGeometry width="160" relative="1" as="geometry">
                        <mxPoint x="245" y="478" as="sourcePoint"/>
                        <mxPoint x="643" y="574" as="targetPoint"/>
                    </mxGeometry>
                </mxCell>
                <mxCell id="195" value="" style="endArrow=none;html=1;rounded=0;exitX=1;exitY=1;exitDx=0;exitDy=0;entryX=0;entryY=0.3333333333333333;entryDx=0;entryDy=0;entryPerimeter=0;" edge="1" parent="1" source="192" target="131">
                    <mxGeometry width="50" height="50" relative="1" as="geometry">
                        <mxPoint x="720" y="644" as="sourcePoint"/>
                        <mxPoint x="770" y="594" as="targetPoint"/>
                    </mxGeometry>
                </mxCell>
                <mxCell id="196" value="" style="endArrow=none;html=1;rounded=0;exitX=1;exitY=1;exitDx=0;exitDy=0;entryX=0;entryY=0.3333333333333333;entryDx=0;entryDy=0;entryPerimeter=0;" edge="1" parent="1" target="131">
                    <mxGeometry width="50" height="50" relative="1" as="geometry">
                        <mxPoint x="700" y="638" as="sourcePoint"/>
                        <mxPoint x="772" y="742" as="targetPoint"/>
                    </mxGeometry>
                </mxCell>
                <mxCell id="197" value="" style="endArrow=none;html=1;rounded=0;exitX=1;exitY=0.5;exitDx=0;exitDy=0;" edge="1" parent="1" source="184">
                    <mxGeometry width="50" height="50" relative="1" as="geometry">
                        <mxPoint x="710" y="691" as="sourcePoint"/>
                        <mxPoint x="770" y="694" as="targetPoint"/>
                    </mxGeometry>
                </mxCell>
                <mxCell id="198" value="" style="endArrow=none;html=1;rounded=0;exitX=0.955;exitY=0.344;exitDx=0;exitDy=0;entryX=0;entryY=0.3333333333333333;entryDx=0;entryDy=0;entryPerimeter=0;exitPerimeter=0;" edge="1" parent="1" source="183" target="131">
                    <mxGeometry width="50" height="50" relative="1" as="geometry">
                        <mxPoint x="710" y="713" as="sourcePoint"/>
                        <mxPoint x="780" y="704" as="targetPoint"/>
                    </mxGeometry>
                </mxCell>
                <mxCell id="199" value="" style="endArrow=none;html=1;rounded=0;exitX=0.925;exitY=0.304;exitDx=0;exitDy=0;entryX=0;entryY=0.3333333333333333;entryDx=0;entryDy=0;entryPerimeter=0;exitPerimeter=0;" edge="1" parent="1" source="187" target="131">
                    <mxGeometry width="50" height="50" relative="1" as="geometry">
                        <mxPoint x="706" y="775" as="sourcePoint"/>
                        <mxPoint x="780" y="705" as="targetPoint"/>
                    </mxGeometry>
                </mxCell>
                <mxCell id="200" value="" style="endArrow=none;html=1;rounded=0;exitX=0.915;exitY=0.344;exitDx=0;exitDy=0;entryX=0;entryY=0.3333333333333333;entryDx=0;entryDy=0;entryPerimeter=0;exitPerimeter=0;" edge="1" parent="1" source="186" target="131">
                    <mxGeometry width="50" height="50" relative="1" as="geometry">
                        <mxPoint x="704" y="843" as="sourcePoint"/>
                        <mxPoint x="780" y="705" as="targetPoint"/>
                    </mxGeometry>
                </mxCell>
                <object placeholders="1" c4Name="Clinic System" c4Type="SystemScopeBoundary" c4Application="clinic system" label="&lt;font style=&quot;font-size: 16px&quot;&gt;&lt;b&gt;&lt;div style=&quot;text-align: left&quot;&gt;%c4Name%&lt;/div&gt;&lt;/b&gt;&lt;/font&gt;&lt;div style=&quot;text-align: left&quot;&gt;[%c4Application%]&lt;/div&gt;" id="201">
                    <mxCell style="rounded=1;fontSize=11;whiteSpace=wrap;html=1;arcSize=20;fillColor=none;strokeColor=#000000;fontColor=#333333;labelBackgroundColor=none;align=left;verticalAlign=bottom;labelBorderColor=none;spacingTop=0;spacing=10;metaEdit=1;rotatable=0;perimeter=rectanglePerimeter;noLabel=0;labelPadding=0;allowArrows=0;connectable=0;expand=0;recursiveResize=0;editable=1;pointerEvents=0;absoluteArcSize=1;points=[[0.25,0,0],[0.5,0,0],[0.75,0,0],[1,0.25,0],[1,0.5,0],[1,0.75,0],[0.75,1,0],[0.5,1,0],[0.25,1,0],[0,0.75,0],[0,0.5,0],[0,0.25,0]];strokeWidth=2;" vertex="1" parent="1">
                        <mxGeometry x="90" y="8" width="680" height="1062" as="geometry"/>
                    </mxCell>
                </object>
            </root>
        </mxGraphModel>
    </diagram>
</mxfile>
